Coordinates
version=1
nRows=4
nColumns=63
inDegrees=yes

Units are S.I. units (second, meters, Newtons, ...)
If the header above contains a line with 'inDegrees', this indicates whether rotational values are in degrees (yes) or radians (no).

endheader
time	pelvis_tilt	pelvis_list	pelvis_rotation	pelvis_tx	pelvis_ty	pelvis_tz	hip_flexion_r	hip_adduction_r	hip_rotation_r	knee_angle_r	knee_angle_r_beta	ankle_angle_r	subtalar_angle_r	mtp_angle_r	hip_flexion_l	hip_adduction_l	hip_rotation_l	knee_angle_l	knee_angle_l_beta	ankle_angle_l	subtalar_angle_l	mtp_angle_l	L5_S1_Flex_Ext	L5_S1_Lat_Bending	L5_S1_axial_rotation	L4_L5_Flex_Ext	L4_L5_Lat_Bending	L4_L5_axial_rotation	L3_L4_Flex_Ext	L3_L4_Lat_Bending	L3_L4_axial_rotation	L2_L3_Flex_Ext	L2_L3_Lat_Bending	L2_L3_axial_rotation	L1_L2_Flex_Ext	L1_L2_Lat_Bending	L1_L2_axial_rotation	L1_T12_Flex_Ext	L1_T12_Lat_Bending	L1_T12_axial_rotation	Abs_r3	Abs_r2	Abs_r1	Abs_t1	Abs_t2	neck_flexion	neck_bending	neck_rotation	arm_flex_r	arm_add_r	arm_rot_r	elbow_flex_r	pro_sup_r	wrist_flex_r	wrist_dev_r	arm_flex_l	arm_add_l	arm_rot_l	elbow_flex_l	pro_sup_l	wrist_flex_l	wrist_dev_l
      2.50847458	      1.61525618	      1.84836762	     92.44996649	      0.30070006	      0.45680464	      0.85816363	     -6.86096011	      3.81835647	      7.47654553	      2.29638676	      0.04007951	     23.25701504	     -6.00953974	      0.00000000	     -5.55543680	     -2.91102246	      0.20642436	      3.14046526	      0.05481146	     29.89383417	      2.55826242	      0.00000000	     -0.40877401	     -0.44281425	     -1.65501767	     -0.75913421	     -0.58894295	     -1.75845627	     -0.67157482	     -1.07665856	     -1.75845627	     -0.46718782	     -1.07665856	     -1.44814046	     -0.37958755	     -0.90298681	     -1.34470186	     -0.23357347	     -0.68591927	     -1.24126325	     -2.91983187	     -5.00920331	     -9.20471177	      0.00000000	      0.00000000	    -12.28769689	     -1.29046474	    -19.86284335	     61.96529101	    -41.06724493	    -24.21822738	    148.87172988	     40.86592995	     24.26646220	     32.33605076	      9.71889508	    -14.46066620	    141.71247286	      2.28352286	      9.03336691	    -17.96023191	    -14.06297042
      2.52542373	      1.62584157	      1.80672689	     92.59080846	      0.30023491	      0.45660628	      0.85771457	     -6.71252887	      3.83060821	      7.03421654	      2.49114287	      0.04347865	     23.70220744	     -5.50187794	      0.00000000	     -5.46288363	     -2.92018975	      0.54028212	      3.22004969	      0.05620047	     30.14826465	      2.80433934	      0.00000000	     -0.39149188	     -0.45432693	     -1.63103547	     -0.72703958	     -0.60425481	     -1.73297519	     -0.64318202	     -1.10465049	     -1.73297519	     -0.44743607	     -1.10465049	     -1.42715604	     -0.36353936	     -0.92646347	     -1.32521632	     -0.22369846	     -0.70375241	     -1.22327660	     -2.79638738	     -5.13943707	     -9.07132998	      0.00000000	      0.00000000	    -11.77124117	     -1.11961309	    -19.74216994	     61.19551996	    -41.20121571	    -23.39209754	    148.89655540	     39.49727285	     21.65640348	     31.79065699	      9.61749909	    -14.37905011	    143.18781289	      1.86752216	      9.43037573	    -19.57617062	    -13.97757153
      2.54237288	      1.69083844	      1.68388811	     92.60125826	      0.29961032	      0.45624901	      0.85755855	     -6.40666816	      3.86128565	      6.70719020	      2.81473509	      0.04912639	     24.07349096	     -5.06942915	      0.00000000	     -5.30227535	     -2.94922068	      0.64428844	      3.32738846	      0.05807388	     30.26571805	      2.86711382	      0.00000000	     -0.38247345	     -0.45333370	     -1.58024556	     -0.71029144	     -0.60293382	     -1.67901091	     -0.62836563	     -1.10223557	     -1.67901091	     -0.43712890	     -1.10223557	     -1.38271486	     -0.35516484	     -0.92443809	     -1.28394952	     -0.21854533	     -0.70221391	     -1.18518417	     -2.73196959	     -5.12820151	     -8.78885173	      0.00000000	      0.00000000	    -10.64619505	     -1.02109074	    -19.47679958	     60.76695793	    -41.23892332	    -23.08999966	    148.95474659	     39.35051667	     20.22360664	     31.48398305	      9.65131993	    -14.26605427	    144.39728583	      1.47503006	      9.67333809	    -20.30332133	    -14.14091177
      2.55932203	      1.81013352	      1.52077682	     92.58373431	      0.29873761	      0.45578683	      0.85761204	     -6.03166553	      3.91792034	      5.95986890	      3.18749037	      0.05563220	     24.50626311	     -4.13180843	      0.00000000	     -5.13402732	     -3.01100991	      0.54105050	      3.39232983	      0.05920732	     30.28505085	      2.82058884	      0.00000000	     -0.38921611	     -0.43645592	     -1.54723358	     -0.72281324	     -0.58048638	     -1.64393568	     -0.63944315	     -1.06119894	     -1.64393568	     -0.44483509	     -1.06119894	     -1.35382939	     -0.36142608	     -0.89002092	     -1.25712729	     -0.22239809	     -0.67607023	     -1.16042519	     -2.78013175	     -4.93727671	     -8.60524903	      0.00000000	      0.00000000	     -9.19237264	     -1.04477845	    -18.66095238	     60.69842609	    -41.07405789	    -22.83617739	    149.09093383	     40.37793502	     19.00256482	     30.87776263	      9.75853308	    -14.10662127	    145.97506701	      1.19605864	      9.14223046	    -21.17800870	    -14.29464355
